<svg xmlns="http://www.w3.org/2000/svg" aria-labelledby="title desc" role="img" viewBox="0 0 640 256"><title id="title">Virtual Carillon</title><desc id="desc">A golden bell inside a deep blue roundel beside the Virtual Carillon wordmark.</desc><circle cx="128" cy="128" r="120" fill="#13233a"/><path fill="#f4c95d" d="M128 46c-29 0-51 23-51 52v18c0 19-7 35-21 49-5 5-2 14 6 14h132c8 0 11-9 6-14-14-14-21-30-21-49V98c0-29-22-52-51-52Z"/><path fill="none" stroke="#13233a" stroke-linecap="round" stroke-width="8" d="M80 179h96"/><path fill="none" stroke="#f4c95d" stroke-linecap="round" stroke-width="9" d="M108 193c3 11 11 17 20 17s17-6 20-17"/><path fill="none" stroke="#f4c95d" stroke-linecap="round" stroke-width="8" d="M58 88c-11 10-17 23-18 37M198 88c11 10 17 23 18 37"/><path fill="none" stroke="#f4c95d" stroke-linecap="round" stroke-width="7" d="M75 63c-7 5-13 11-18 18M181 63c7 5 13 11 18 18"/><path fill="none" stroke="#f4c95d" stroke-linecap="round" stroke-width="9" d="M114 46c1-8 7-13 14-13s13 5 14 13"/><rect width="332" height="111" x="286" y="73" fill="#fff" rx="26"/><text x="307" y="139" fill="#13233a" font-family="Helvetica Neue, Arial, sans-serif" font-size="39" font-weight="600">Virtual Carillon</text><path fill="none" stroke="#f4c95d" stroke-linecap="round" stroke-width="6" d="M308 158h214"/></svg>